# xmcd
#
# Track frame offsets:
#	150
#	12682
#	26510
#	44480
#	63025
#	85140
#	98487
#	116835
#	127285
#	140830
#	153932
#	166635
#	182275
#	198490
#
# Disc length: 2786 seconds
#
# Revision: 1
# Processed by: cddbd v1.4PL0 Copyright (c) Steve Scherf et al.
# Submitted via: CDmax 1.9
#
DISCID=b70ae00e
DTITLE=Los Conejos Texas Blues Band - Counterfeit
DYEAR=2002
DGENRE=Blues
TTITLE0=Silly Nighttime Baby
TTITLE1=Howling Wolf
TTITLE2=Counterfeit
TTITLE3=She's Dangerous'
TTITLE4=Checkin'Up On My Baby'
TTITLE5=Yeah My Baby
TTITLE6=Struck By Love
TTITLE7=Time Is Gone
TTITLE8=Pray For Me'
TTITLE9=Things I Do For You'
TTITLE10=Is This Love
TTITLE11=Watch Yourself'
TTITLE12=Cut That Out'
TTITLE13=Too Late, Brother'
EXTD=
EXTT0=
EXTT1=
EXTT2=
EXTT3=
EXTT4=
EXTT5=
EXTT6=
EXTT7=
EXTT8=
EXTT9=
EXTT10=
EXTT11=
EXTT12=
EXTT13=
PLAYORDER=
